<mxfile host="app.diagrams.net" modified="2021-01-05T04:57:50.636Z" agent="5.0 (Windows NT 10.0; Win64; x64) AppleWebKit/537.36 (KHTML, like Gecko) Chrome/87.0.4280.88 Safari/537.36" etag="H97NPsK6iqvykc5MqqBw" version="14.1.8" type="github">
  <diagram id="P37y01tTrFS2OQyMTIah" name="Page-1">
    <mxGraphModel dx="1321" dy="798" grid="1" gridSize="10" guides="1" tooltips="1" connect="1" arrows="1" fold="1" page="1" pageScale="1" pageWidth="850" pageHeight="1100" math="0" shadow="0">
      <root>
        <mxCell id="0" />
        <mxCell id="1" parent="0" />
        <mxCell id="G_ljfy46ABNOKwbtokqv-1" value="" style="ellipse;whiteSpace=wrap;html=1;" parent="1" vertex="1">
          <mxGeometry x="160" y="70" width="90" height="110" as="geometry" />
        </mxCell>
        <mxCell id="G_ljfy46ABNOKwbtokqv-2" value="" style="ellipse;shape=cloud;whiteSpace=wrap;html=1;" parent="1" vertex="1">
          <mxGeometry x="180" y="340" width="120" height="80" as="geometry" />
        </mxCell>
        <mxCell id="G_ljfy46ABNOKwbtokqv-3" value="" style="endArrow=classic;startArrow=classic;html=1;exitX=0.4;exitY=0.1;exitDx=0;exitDy=0;exitPerimeter=0;" parent="1" source="G_ljfy46ABNOKwbtokqv-2" edge="1">
          <mxGeometry width="50" height="50" relative="1" as="geometry">
            <mxPoint x="160" y="230" as="sourcePoint" />
            <mxPoint x="210" y="180" as="targetPoint" />
          </mxGeometry>
        </mxCell>
        <mxCell id="G_ljfy46ABNOKwbtokqv-4" value="Actor" style="shape=umlActor;verticalLabelPosition=bottom;verticalAlign=top;html=1;outlineConnect=0;" parent="1" vertex="1">
          <mxGeometry x="410" y="240" width="50" height="100" as="geometry" />
        </mxCell>
      </root>
    </mxGraphModel>
  </diagram>
</mxfile>
